HIERARCHY
ROOT Hips
{
     OFFSET -1.24720 40.56370 -36.40990
     CHANNELS 6 Xposition Yposition Zposition Zrotation Xrotation Yrotation
     JOINT Spine
     {
          OFFSET -0.00000 11.89050 -0.00000
          CHANNELS 3 Zrotation Xrotation Yrotation
          JOINT Spine1
          {
               OFFSET -0.00000 25.65740 0.12766
               CHANNELS 3 Zrotation Xrotation Yrotation
               JOINT HEad
               {
                    OFFSET 0.00000 8.73416 0.01134
                    CHANNELS 3 Zrotation Xrotation Yrotation
                    End Site
                    {
                         OFFSET -0.29000 12.77420 2.51395
                    }
               }
               JOINT LeftShoulder1
               {
                    OFFSET 8.99000 -0.36225 -0.22000
                    CHANNELS 3 Zrotation Xrotation Yrotation
                    JOINT LeftArm
                    {
                         OFFSET 10.28270 -0.00338 0.32212
                         CHANNELS 3 Zrotation Xrotation Yrotation
                         JOINT LeftForeArm
                         {
                              OFFSET 32.76690 0.09914 -1.42434
                              CHANNELS 3 Zrotation Xrotation Yrotation
                              JOINT LeftHand
                              {
                                   OFFSET 27.56430 0.08536 1.02216
                                   CHANNELS 3 Zrotation Xrotation Yrotation
                                   End Site
                                   {
                                        OFFSET 16.74430 -0.60000 1.50291
                                   }
                              }
                         }
                    }
               }
               JOINT RightShoulder
               {
                    OFFSET -8.99000 -0.36225 -0.22000
                    CHANNELS 3 Zrotation Xrotation Yrotation
                    JOINT RightArm
                    {
                         OFFSET -10.28270 -0.00338 0.32212
                         CHANNELS 3 Zrotation Xrotation Yrotation
                         JOINT RightForeArm
                         {
                              OFFSET -32.89710 0.09914 -1.42434
                              CHANNELS 3 Zrotation Xrotation Yrotation
                              JOINT RightHand
                              {
                                   OFFSET -27.49210 0.08536 1.02216
                                   CHANNELS 3 Zrotation Xrotation Yrotation
                                   End Site
                                   {
                                        OFFSET -16.63120 -0.60000 1.50291
                                   }
                              }
                         }
                    }
               }
          }
     }
     JOINT LeftUpLeg
     {
          OFFSET 8.94580 -8.66707 0.10165
          CHANNELS 3 Zrotation Xrotation Yrotation
          JOINT LeftLeg
          {
               OFFSET -0.00000 -44.42270 1.37270
               CHANNELS 3 Zrotation Xrotation Yrotation
               JOINT LeftFoot
               {
                    OFFSET -0.25355 -42.09240 -1.46059
                    CHANNELS 3 Zrotation Xrotation Yrotation
                    JOINT LeftToes
                    {
                         OFFSET -0.04000 -4.41509 8.49910
                         CHANNELS 3 Zrotation Xrotation Yrotation
                         End Site
                         {
                              OFFSET 0.08000 -0.04745 9.77979
                         }
                    }
               }
          }
     }
     JOINT RightUpLeg
     {
          OFFSET -8.94580 -8.66707 0.10165
          CHANNELS 3 Zrotation Xrotation Yrotation
          JOINT RightLeg
          {
               OFFSET -0.00000 -44.42270 1.37270
               CHANNELS 3 Zrotation Xrotation Yrotation
               JOINT RightFoot
               {
                    OFFSET 0.25355 -42.09240 -1.46059
                    CHANNELS 3 Zrotation Xrotation Yrotation
                    JOINT RightToes
                    {
                         OFFSET 0.04000 -4.41509 8.49910
                         CHANNELS 3 Zrotation Xrotation Yrotation
                         End Site
                         {
                              OFFSET -0.08000 -0.13745 9.77979
                         }
                    }
               }
          }
     }
}
MOTION
Frames: 15
Frame Time: 0.01667
17.99510 16.17560 -40.69310 -82.32120 -17.31340 -38.16350 6.26423 21.31390 -4.39800 17.54200 38.42480 -8.33500 25.59110 6.49016 10.68960 -0.00000 -0.00000 0.00000 -26.81610 -30.83590 -75.07280 5.58467 -2.27538 -44.19700 8.95018 9.01245 -8.09775 7.78860 1.50400 10.35700 60.79870 -18.64590 69.08610 26.44390 -5.95543 44.31300 4.46893 10.61020 11.46330 -4.54604 -54.14560 -0.73689 -19.43540 70.32700 39.57560 -6.75114 -5.63963 0.13820 1.36055 -1.54279 -5.45298 -14.53220 -14.68170 -29.79220 -30.45170 57.07920 13.51680 10.60830 -6.62771 -0.26144 2.04071 17.21050 -10.97750 
18.94990 13.85090 -41.17090 -87.34170 -17.48780 -38.00980 5.98552 21.42680 -4.34384 17.55160 38.66520 -8.41894 27.28160 6.94313 7.11711 -0.00000 -0.00000 0.00000 -24.55700 -29.65980 -76.85050 8.51761 -1.43408 -38.39460 7.32412 9.12813 -9.13208 9.09428 1.79605 11.56670 60.87200 -15.19620 66.25720 24.38540 -5.95252 41.37020 4.14003 10.55510 11.22430 -4.03751 -54.63510 -3.05546 -25.79430 72.97410 45.46880 -7.20509 -7.79353 0.02288 0.33394 1.68675 -3.17533 -11.42210 -13.23600 -28.85440 -29.54260 58.08620 9.96932 12.98060 -7.69258 -0.16819 1.87402 19.42320 -10.29640 
19.63880 12.35360 -41.46780 -92.07450 -17.81820 -38.17230 5.29104 21.25490 -3.97802 16.50150 38.49300 -7.63395 27.86950 7.39687 3.24436 -0.00000 -0.00000 0.00000 -22.72660 -27.69150 -80.19000 12.04150 -1.33839 -31.04040 5.05517 9.33436 -10.67210 9.55963 1.96417 12.43820 61.95120 -11.65170 63.66270 22.43830 -5.25476 39.15340 3.33561 10.44460 11.15740 -3.46457 -54.84220 -4.29098 -32.22790 75.61030 51.68080 -8.23890 -9.74434 -0.10853 -0.75173 5.07941 -1.29354 -8.41943 -11.93660 -27.97840 -29.88780 59.04080 9.57985 15.03880 -8.06028 -0.12106 1.76057 21.31420 -9.86629 
20.14400 11.69590 -41.62780 -96.43270 -18.43170 -38.32450 4.37757 20.76050 -3.44318 14.69330 37.84650 -6.32869 26.84300 7.52638 -0.10486 -0.00000 -0.00000 0.00000 -21.09660 -24.60150 -84.63380 16.53660 -2.64372 -22.15440 2.35426 9.66845 -11.82650 9.19522 1.99039 13.01150 63.68520 -7.84023 61.59850 20.52730 -4.08378 37.54330 2.47431 10.32140 10.87650 -3.46658 -54.57160 -4.36572 -34.96630 78.55510 54.57720 -9.49449 -10.35190 -0.17926 -1.21219 6.57407 -0.66178 -5.73316 -10.60640 -27.40610 -31.49190 59.82700 12.49920 16.43730 -7.98434 -0.12660 1.67386 22.51650 -9.57028 
20.55230 11.77740 -41.70480 -100.31200 -19.41000 -38.26940 3.36110 20.02740 -2.84397 12.47830 36.82820 -4.81307 23.96800 6.91747 -2.01264 -0.00000 -0.00000 0.00000 -20.38660 -20.78690 -89.79820 21.58210 -4.91907 -13.30780 0.39796 9.93926 -10.96930 8.15662 1.88452 13.27600 65.74940 -3.77216 60.48000 18.56880 -2.40735 36.54010 1.92309 10.23320 10.19580 -4.15888 -53.74170 -3.55304 -31.30220 81.60780 51.29170 -10.57520 -9.38950 -0.12075 -0.87337 5.86433 -1.42704 -3.62063 -9.18427 -27.07710 -33.67150 60.53810 17.65800 16.89390 -7.63685 -0.17501 1.75303 22.23350 -9.81633 
20.96240 12.38880 -41.70310 -103.52100 -20.69540 -38.15190 2.23425 19.21850 -2.17657 10.04530 35.64400 -3.13083 19.53370 5.24484 -2.05045 -0.00000 -0.00000 0.00000 -21.41240 -16.87300 -94.93530 26.09300 -7.82050 -7.07273 0.95792 9.87253 -7.34551 6.63900 1.67301 13.19420 67.73370 0.42183 60.64440 16.38420 -0.16158 36.29120 1.77962 10.19510 9.27549 -5.07546 -52.49540 -2.06045 -20.29480 83.99470 40.60440 -11.58080 -7.62954 0.03334 -0.28517 4.55836 -2.79216 -2.38261 -7.87744 -26.57740 -35.65090 61.43570 23.26420 16.49390 -7.15497 -0.24211 2.04154 20.43780 -10.78530 
21.46950 13.29150 -41.57480 -105.79100 -22.01940 -38.29500 0.94467 18.45370 -1.37720 7.44260 34.40750 -1.14885 14.37970 2.45427 -0.64305 -0.00000 -0.00000 0.00000 -23.60680 -13.33320 -98.98730 26.92790 -12.78570 -7.86915 4.69150 9.64463 -3.04022 4.83484 1.39526 12.75480 69.22220 4.47088 62.25270 13.90960 2.47490 36.86400 1.82627 10.18410 8.53643 -5.79536 -51.21300 0.16793 -3.82997 85.18830 24.42260 -12.75840 -5.76233 0.23230 0.14188 3.89591 -4.08203 -2.25670 -7.14742 -25.43020 -37.08300 62.72470 27.65300 15.73550 -6.64257 -0.30656 2.33610 18.15220 -11.91510 
22.11900 14.33390 -41.27560 -106.95900 -23.01190 -38.81930 -0.46806 17.76630 -0.47270 4.82051 33.10260 1.06665 9.48841 -1.19512 1.25273 -0.00000 -0.00000 0.00000 -25.40710 -10.75640 -101.43100 27.70030 -15.30160 -8.53605 9.34158 9.52736 -0.64762 2.85030 1.09157 12.05140 70.04060 7.95249 65.22730 11.43830 4.99094 38.07870 1.69584 10.16530 8.32776 -6.20280 -50.33960 3.22766 11.99460 85.25000 9.02247 -13.96320 -3.97871 0.46070 0.42410 3.70054 -5.14618 -3.20915 -7.44315 -23.59240 -38.11990 64.34640 30.00370 15.18010 -6.18669 -0.35957 2.43414 16.46220 -12.42410 
22.86840 15.50320 -40.81940 -107.19700 -23.45670 -39.47660 -1.81044 17.17110 0.32936 2.54471 31.76710 3.04085 5.61399 -5.21342 2.90750 -0.00000 -0.00000 0.00000 -25.78710 -9.65294 -102.43700 28.21430 -15.18230 -8.74490 11.90410 9.45936 -0.21051 0.73791 0.79930 11.36230 70.35740 10.43290 69.18740 9.49452 6.77461 39.55640 1.20549 10.11720 8.64960 -6.34097 -50.11270 6.96385 23.68770 84.61730 -2.18666 -14.84740 -2.46035 0.67815 0.63198 3.50542 -5.90645 -4.85739 -8.80641 -21.60980 -39.12440 66.04820 30.42780 15.08280 -5.88401 -0.39655 2.28217 15.80650 -11.94810 
23.60910 16.85770 -40.27970 -106.99100 -23.41960 -39.85500 -2.80813 16.68830 0.78919 1.02423 30.55670 4.23306 3.22108 -8.94914 4.06531 -0.00000 -0.00000 0.00000 -24.99730 -9.94410 -102.38700 28.44010 -13.20210 -8.57271 11.62700 9.41050 -0.84431 -1.29707 0.55078 10.94920 70.53770 11.68040 73.42020 8.45188 7.53312 40.87250 0.55567 10.05100 9.24236 -6.24032 -50.42730 10.92910 32.57740 83.75690 -10.81290 -15.31260 -1.41997 0.83285 0.74923 3.28375 -6.26448 -6.71123 -10.76380 -20.17500 -40.33520 67.62030 29.61980 15.31220 -5.81038 -0.40964 1.93005 15.95620 -10.66470 
24.24340 18.41540 -39.73340 -106.82300 -23.13660 -39.69220 -3.24506 16.29090 0.91378 0.48912 29.57430 4.62960 2.39997 -11.66560 4.44803 -0.00000 -0.00000 0.00000 -23.99410 -10.81160 -101.93800 26.84780 -11.71170 -10.68250 9.83770 9.38917 -2.13129 -2.80189 0.37410 10.50580 70.84700 11.88020 77.05660 8.33009 7.43622 41.71370 0.12554 10.00520 9.84754 -5.85421 -50.96240 14.54810 38.90360 83.10300 -17.23100 -15.46410 -0.72751 0.93073 0.80789 3.05679 -6.36621 -8.48639 -12.68360 -19.58860 -41.73800 68.99870 28.42870 15.57750 -5.97909 -0.39196 1.49073 16.34910 -9.07674 
24.73750 20.11810 -39.20860 -106.91900 -22.83690 -38.99940 -3.11160 15.95400 0.84628 0.84254 28.84600 4.52043 2.89776 -12.89530 3.95688 -0.00000 -0.00000 0.00000 -23.53090 -11.49400 -101.68700 24.81520 -10.98320 -13.37610 8.45397 9.36134 -3.70215 -3.46873 0.29275 9.79559 71.24740 11.42360 79.61980 8.79888 6.66660 41.92800 0.15805 10.01290 10.32710 -5.17164 -51.43020 17.39830 42.17680 82.99290 -20.91390 -15.43720 -0.04028 1.01762 0.86154 2.76155 -6.39984 -10.16160 -14.18820 -19.66030 -43.13050 70.21290 27.49110 15.68100 -6.33507 -0.34661 1.10291 16.55980 -7.70138 
25.11130 21.86580 -38.69230 -107.23300 -22.65030 -37.95980 -2.57101 15.69370 0.65757 1.77590 28.37820 4.07282 4.29010 -12.66980 2.86401 -0.00000 -0.00000 0.00000 -23.82710 -11.80380 -101.76700 22.67160 -11.34730 -15.89300 8.61819 9.24973 -5.16601 -3.43931 0.28630 9.10080 71.50240 10.59570 81.20860 9.41484 5.15992 41.55180 0.63721 10.07740 10.65060 -4.34346 -51.72520 19.37500 42.75940 83.45170 -22.21770 -15.40730 0.81630 1.12565 0.85510 2.50739 -6.19190 -11.84180 -15.25400 -19.98440 -44.31360 71.30490 27.11370 15.58110 -6.77688 -0.28755 0.85890 16.51810 -6.83528 
25.40690 23.55640 -38.16600 -107.58700 -22.58900 -36.77140 -1.82865 15.53010 0.36713 2.99612 28.13960 3.36123 6.08861 -11.31500 1.46959 -0.00000 -0.00000 0.00000 -24.72850 -11.90230 -102.03900 20.56950 -12.32070 -17.87100 10.33590 9.00147 -6.44370 -3.04735 0.31757 8.74162 71.37860 9.56999 82.14720 9.90190 2.83004 40.79690 1.37743 10.17650 10.82820 -3.60662 -51.91190 20.61770 41.50890 84.23620 -22.03380 -15.62870 1.72170 1.26028 0.63886 2.67344 -5.34172 -13.62180 -16.08800 -20.25010 -45.28910 72.24990 27.41080 15.32150 -7.16326 -0.23574 0.76809 16.29760 -6.49902 
25.66270 25.10760 -37.62440 -107.83900 -22.59180 -35.58580 -1.03317 15.46100 0.01200 4.35213 28.06480 2.48273 7.86292 -9.20545 -0.09281 -0.00000 -0.00000 0.00000 -25.97220 -11.99410 -102.34700 18.76050 -12.95090 -19.17730 12.84300 8.65617 -7.48230 -2.57249 0.36187 8.76505 70.83090 8.44545 82.66080 10.19270 -0.12374 39.93190 2.15618 10.27960 10.87330 -3.09490 -52.09290 21.36960 39.54210 85.07990 -21.40710 -16.46730 2.29716 1.40937 0.06346 3.82478 -3.69462 -15.51370 -16.91810 -20.37210 -46.23400 72.94170 28.39360 14.95890 -7.33846 -0.21212 0.78444 15.87290 -6.52969 
